<?xml version="1.0" encoding="iso-8859-1"?>
<!-- Uploaded to: SVG Repo, www.svgrepo.com, Generator: SVG Repo Mixer Tools -->
<svg height="800px" width="800px" version="1.1" id="Layer_1" xmlns="http://www.w3.org/2000/svg" xmlns:xlink="http://www.w3.org/1999/xlink" 
	 viewBox="0 0 512 512" xml:space="preserve">
<path style="fill:#4D3A2D;" d="M16.331,142.065c-4.713,0-8.533,3.82-8.533,8.533v18.202l17.067,22.647v-40.85
	C24.864,145.886,21.043,142.065,16.331,142.065z"/>
<path style="fill:#735643;" d="M225.923,138.871c0,0-95.293,89.486-218.126,29.93v75.364l69.038,83.817h326.212v-92.019
	C337.587,219.628,266.105,181.385,225.923,138.871z"/>
<g>
	<path style="fill:#4D3A2D;" d="M180.512,316.604l161.282,22.756l161.282-22.756c0-63.501-38.419-65.265-100.03-80.64
		C403.046,288.272,180.512,244.858,180.512,316.604z"/>
	<path style="fill:#4D3A2D;" d="M7.797,244.165v95.194l125.927-22.756C133.723,316.601,117.121,244.165,7.797,244.165z"/>
</g>
<polygon style="fill:#B9703F;" points="503.078,316.604 7.797,316.604 0,316.604 0,373.129 134.568,373.129 133.724,350.737 
	180.512,350.737 180.512,373.129 512,373.129 512,316.604 "/>
<g>
	<circle style="fill:#261D16;" cx="249.81" cy="203.207" r="8.533"/>
	<circle style="fill:#261D16;" cx="223.186" cy="183.159" r="8.533"/>
</g>
</svg>