<?xml version="1.0" encoding="iso-8859-1"?>
<!-- Uploaded to: SVG Repo, www.svgrepo.com, Generator: SVG Repo Mixer Tools -->
<svg height="800px" width="800px" version="1.1" id="Layer_1" xmlns="http://www.w3.org/2000/svg" xmlns:xlink="http://www.w3.org/1999/xlink" 
	 viewBox="0 0 512 512" xml:space="preserve">
<g>
	<g>
		<path style="fill:#4482C3;" d="M150.069,370.657H17.655C7.901,370.657,0,362.756,0,353.002V194.105h167.724L150.069,370.657z"/>
		<path style="fill:#4482C3;" d="M494.345,370.657H361.931l-17.655-176.552H512v158.897
			C512,362.756,504.099,370.657,494.345,370.657"/>
	</g>
	<path style="fill:#ECF0F1;" d="M512,194.105H0V141.14c0-9.754,7.901-17.655,17.655-17.655h476.69
		c9.754,0,17.655,7.901,17.655,17.655V194.105z"/>
	<path style="fill:#285680;" d="M361.931,370.657h-44.138l-4.749,2.71c-35.346,20.198-78.742,20.198-114.088,0l-4.749-2.71h-44.138
		l17.655-176.552h176.552L361.931,370.657z"/>
	<path style="fill:#1F4866;" d="M361.931,370.657l-7.945-79.448c-24.867,0-45.021,20.153-45.021,45.021v39.133
		c1.351-0.706,2.754-1.236,4.078-1.995l4.749-2.71H361.931z"/>
	<g>
		<path style="fill:#9AA1A5;" d="M79.448,158.795c0,4.873-3.955,8.828-8.828,8.828s-8.828-3.955-8.828-8.828
			c0-4.873,3.955-8.828,8.828-8.828S79.448,153.922,79.448,158.795"/>
		<path style="fill:#9AA1A5;" d="M132.414,158.795c0,4.873-3.955,8.828-8.828,8.828s-8.828-3.955-8.828-8.828
			c0-4.873,3.955-8.828,8.828-8.828S132.414,153.922,132.414,158.795"/>
		<path style="fill:#9AA1A5;" d="M185.379,158.795c0,4.873-3.955,8.828-8.828,8.828c-4.873,0-8.828-3.955-8.828-8.828
			c0-4.873,3.955-8.828,8.828-8.828C181.425,149.967,185.379,153.922,185.379,158.795"/>
		<path style="fill:#9AA1A5;" d="M238.345,158.795c0,4.873-3.955,8.828-8.828,8.828s-8.828-3.955-8.828-8.828
			c0-4.873,3.955-8.828,8.828-8.828S238.345,153.922,238.345,158.795"/>
		<path style="fill:#9AA1A5;" d="M291.31,158.795c0,4.873-3.955,8.828-8.828,8.828c-4.873,0-8.828-3.955-8.828-8.828
			c0-4.873,3.955-8.828,8.828-8.828C287.356,149.967,291.31,153.922,291.31,158.795"/>
		<path style="fill:#9AA1A5;" d="M344.276,158.795c0,4.873-3.955,8.828-8.828,8.828s-8.828-3.955-8.828-8.828
			c0-4.873,3.955-8.828,8.828-8.828S344.276,153.922,344.276,158.795"/>
		<path style="fill:#9AA1A5;" d="M397.241,158.795c0,4.873-3.955,8.828-8.828,8.828s-8.828-3.955-8.828-8.828
			c0-4.873,3.955-8.828,8.828-8.828S397.241,153.922,397.241,158.795"/>
		<path style="fill:#9AA1A5;" d="M450.207,158.795c0,4.873-3.955,8.828-8.828,8.828s-8.828-3.955-8.828-8.828
			c0-4.873,3.955-8.828,8.828-8.828S450.207,153.922,450.207,158.795"/>
	</g>
	<g>
		<path style="fill:#F0C419;" d="M6.241,232.002C4.52,230.281,2.26,229.416,0,229.416v21.31l119.932,119.932h21.31
			c0-2.26-0.865-4.52-2.586-6.241L6.241,232.002z"/>
		<path style="fill:#F0C419;" d="M6.241,284.968C4.52,283.246,2.26,282.381,0,282.381v21.31l66.966,66.966h21.31
			c0-2.26-0.865-4.52-2.586-6.241L6.241,284.968z"/>
	</g>
</g>
</svg>